# xmcd
#
# Track frame offsets:
#	150
#	18062
#	37830
#	54970
#	76180
#	96025
#	117525
#	139110
#	159332
#	177432
#
# Disc length: 2602 seconds
#
# Revision: 0
# Processed by: cddbd v1.4PL0 Copyright (c) Steve Scherf et al.
# Submitted via: MusicManager 7.0.0.0 
#
DISCID=6d0a280a
DTITLE=Ren - Ren
DYEAR=1900
DGENRE=blues
TTITLE0=Breathe Again
TTITLE1=Ooh Wee
TTITLE2=Feel It
TTITLE3=Come Around My Way
TTITLE4=Close Your Eyes
TTITLE5=Calling My Name
TTITLE6=Build Your House
TTITLE7=Some
TTITLE8=Everything
TTITLE9=I Fall So Deep
EXTD=
EXTT0=
EXTT1=
EXTT2=
EXTT3=
EXTT4=
EXTT5=
EXTT6=
EXTT7=
EXTT8=
EXTT9=
PLAYORDER=
